<?xml version="1.0" standalone="no"?>
<!DOCTYPE svg PUBLIC "-//W3C//DTD SVG 20010904//EN"
 "http://www.w3.org/TR/2001/REC-SVG-20010904/DTD/svg10.dtd">
<svg version="1.0" xmlns="http://www.w3.org/2000/svg"
 width="700.000000pt" height="700.000000pt" viewBox="0 0 700.000000 700.000000"
 preserveAspectRatio="xMidYMid meet">
<metadata>
Created by potrace 1.14, written by Peter Selinger 2001-2017
</metadata>
<g transform="translate(0.000000,700.000000) scale(0.100000,-0.100000)"
fill="#000000" stroke="none">
<path d="M3482 6329 c-18 -17 -32 -36 -33 -43 0 -6 -2 -20 -4 -31 -4 -20 33
-88 240 -445 56 -96 173 -299 260 -450 87 -151 213 -369 280 -485 155 -268
537 -929 562 -975 19 -34 210 -363 359 -620 l73 -125 -44 -45 c-52 -55 -68
-85 -61 -114 3 -13 35 -74 72 -137 37 -63 72 -123 78 -134 6 -11 40 -69 74
-130 35 -60 67 -117 73 -125 10 -16 384 -664 425 -737 13 -23 104 -180 202
-350 98 -169 227 -392 286 -495 61 -106 120 -196 134 -207 76 -54 206 -45 264
17 56 59 53 114 -11 224 -77 133 -485 839 -513 888 -34 60 -198 342 -235 406
-17 27 -42 71 -56 96 -14 25 -143 250 -287 499 -144 250 -270 468 -278 484 -9
17 -22 37 -28 45 -6 8 -25 40 -41 70 -17 30 -139 244 -273 475 -496 858 -914
1581 -938 1625 -13 25 -28 50 -32 55 -4 6 -19 30 -32 55 -14 25 -58 101 -98
170 -40 69 -81 141 -92 160 -121 213 -221 380 -233 390 -29 24 -61 21 -93 -11z"/>
<path d="M3099 5646 c-32 -16 -60 -58 -61 -92 0 -20 40 -98 124 -244 118 -203
822 -1421 858 -1485 10 -16 75 -129 145 -250 70 -121 136 -236 147 -255 177
-307 249 -432 271 -467 15 -24 27 -45 27 -47 0 -2 20 -39 45 -80 25 -42 45
-79 45 -83 0 -3 -23 -30 -51 -60 -47 -50 -51 -58 -46 -91 3 -24 152 -291 427
-767 232 -401 434 -750 447 -775 90 -160 150 -254 173 -270 83 -59 225 -39
278 40 42 61 30 99 -95 315 -296 513 -1063 1841 -1111 1925 -30 52 -64 111
-75 130 -10 19 -52 91 -92 160 -40 69 -82 141 -93 160 -11 19 -70 123 -132
230 -62 107 -188 326 -280 485 -92 160 -275 477 -407 705 -132 228 -251 435
-265 460 -87 153 -189 324 -203 340 -22 24 -49 30 -76 16z"/>
<path d="M2665 4923 c-38 -41 -42 -82 -12 -134 49 -88 490 -855 506 -879 26
-41 141 -244 141 -248 0 -2 8 -16 19 -30 10 -15 29 -47 43 -72 35 -63 505
-879 562 -973 25 -43 46 -80 46 -82 0 -2 27 -49 60 -104 33 -56 60 -106 60
-111 0 -6 5 -10 10 -10 6 0 10 -4 10 -9 0 -5 18 -40 39 -77 l40 -68 -55 -59
c-67 -72 -66 -82 17 -225 33 -57 69 -120 81 -140 155 -278 567 -984 586 -1004
40 -43 122 -61 205 -45 63 13 117 78 117 142 0 36 9 21 -493 885 -11 19 -35
62 -54 95 -19 33 -38 67 -43 75 -5 8 -65 112 -133 230 -68 118 -202 350 -297
514 -95 165 -180 314 -190 330 -33 59 -543 942 -626 1085 -46 79 -84 145 -84
147 0 2 -17 32 -38 66 -21 35 -41 70 -45 78 -4 8 -20 36 -35 61 -15 25 -94
162 -177 305 -82 142 -156 264 -165 271 -26 21 -67 15 -95 -14z"/>
<path d="M2271 4233 c-32 -28 -50 -71 -41 -102 4 -14 158 -287 342 -606 185
-319 348 -602 363 -630 16 -27 52 -89 81 -138 30 -49 54 -91 54 -92 0 -2 63
-112 141 -246 77 -133 150 -261 163 -283 13 -23 55 -96 94 -164 40 -68 72
-125 72 -126 0 -2 -28 -4 -61 -5 -69 -1 -103 -21 -97 -56 3 -12 116 -214 253
-450 136 -237 257 -446 268 -465 115 -205 137 -224 254 -221 67 1 121 26 151
71 46 68 42 78 -243 570 -141 245 -343 594 -448 775 -105 182 -254 440 -332
575 -78 135 -155 268 -171 296 -16 28 -67 117 -114 198 -47 80 -89 154 -95
164 -5 9 -31 53 -56 97 -26 44 -55 96 -66 115 -11 19 -87 150 -168 290 -81
140 -157 271 -168 290 -60 107 -72 127 -91 142 -27 22 -58 23 -85 1z"/>
<path d="M1860 3521 c-39 -38 -47 -75 -26 -118 9 -19 108 -193 220 -386 168
-292 320 -554 416 -722 10 -16 66 -113 125 -215 59 -102 113 -197 121 -212
l14 -27 -61 0 c-65 1 -99 -17 -99 -52 0 -22 594 -1054 628 -1091 69 -75 243
-64 296 17 10 15 19 46 21 70 4 46 4 46 -288 550 -44 77 -127 221 -184 320
-57 99 -109 189 -115 200 -7 11 -75 128 -151 260 -76 132 -149 258 -161 280
-32 57 -388 671 -454 785 -31 52 -67 115 -80 140 -13 24 -31 56 -41 70 -9 14
-26 42 -36 64 -28 54 -69 96 -95 96 -12 0 -34 -13 -50 -29z"/>
<path d="M1474 2838 c-27 -13 -55 -61 -56 -96 0 -16 28 -75 69 -147 326 -560
513 -890 510 -899 -3 -6 -17 -18 -33 -26 -53 -26 -82 -49 -87 -69 -3 -13 24
-71 77 -163 267 -468 412 -716 429 -735 71 -79 246 -72 302 13 9 15 20 44 22
65 6 43 -1 58 -197 394 -67 116 -134 230 -148 255 -14 25 -80 140 -147 255
-67 116 -133 230 -147 255 -14 25 -100 174 -192 333 -92 158 -175 302 -185
320 -10 17 -39 67 -65 110 -25 43 -46 82 -46 86 0 12 -43 48 -65 54 -11 3 -29
1 -41 -5z"/>
<path d="M1078 2138 c-31 -11 -68 -64 -68 -99 0 -14 6 -33 14 -44 7 -11 25
-42 41 -70 15 -27 77 -135 138 -240 60 -104 119 -206 130 -225 10 -19 30 -53
43 -76 l24 -41 -50 -27 c-61 -33 -80 -52 -80 -77 0 -17 177 -335 257 -461 12
-21 23 -41 23 -46 0 -14 54 -58 88 -72 82 -32 202 -2 242 62 40 63 29 94 -150
403 -89 154 -172 298 -185 320 -92 163 -361 627 -380 656 -26 41 -48 50 -87
37z"/>
<path d="M647 1420 c-27 -21 -46 -64 -41 -93 1 -10 38 -79 82 -155 43 -75 84
-147 90 -159 11 -19 7 -24 -46 -53 -67 -38 -74 -47 -68 -81 6 -32 71 -144 104
-181 66 -72 237 -65 292 12 35 49 36 98 2 162 -51 97 -304 532 -320 551 -20
23 -63 22 -95 -3z"/>
<path d="M353 912 c-22 -14 -103 -165 -103 -192 0 -17 9 -38 22 -50 19 -17 35
-20 124 -20 141 0 142 1 62 141 -62 109 -84 134 -105 121z"/>
</g>
</svg>
