<?xml version="1.0" standalone="no"?>
<!DOCTYPE svg PUBLIC "-//W3C//DTD SVG 20010904//EN"
 "http://www.w3.org/TR/2001/REC-SVG-20010904/DTD/svg10.dtd">
<svg version="1.0" xmlns="http://www.w3.org/2000/svg"
 width="450.000000pt" height="450.000000pt" viewBox="0 0 450.000000 450.000000"
 preserveAspectRatio="xMidYMid meet">
<metadata>
Created by potrace 1.14, written by Peter Selinger 2001-2017
</metadata>
<g transform="translate(0.000000,450.000000) scale(0.100000,-0.100000)"
fill="#000000" stroke="none">
<path d="M167 4342 c-2 -4 -3 -452 -3 -997 l1 -990 460 -2 c476 -2 533 2 627
41 79 34 144 111 172 207 14 47 16 138 14 774 l-3 720 -28 55 c-53 105 -118
155 -246 187 -36 8 -990 13 -994 5z m748 -368 c20 -15 20 -28 22 -602 1 -352
-2 -600 -8 -618 -12 -40 -27 -44 -155 -44 l-101 0 -1 633 c0 347 2 635 5 640
2 4 52 7 111 7 80 -1 112 -5 127 -16z"/>
<path d="M1629 4348 c-1 -2 -2 -452 -3 -1000 l-1 -998 230 0 230 0 0 393 c0
367 1 392 18 391 9 -1 17 2 17 8 0 5 5 6 11 3 17 -11 59 -13 59 -2 0 5 6 4 14
-2 9 -8 16 -8 20 -2 5 7 15 7 31 1 17 -6 25 -6 25 1 0 6 6 7 12 3 18 -11 48
-12 54 -2 3 4 13 4 22 -1 9 -4 23 -6 30 -4 8 3 12 -6 12 -29 1 -18 1 -196 1
-395 l0 -363 230 0 229 0 0 1000 0 1000 -227 -2 -228 -3 0 -400 c0 -229 -4
-403 -9 -407 -17 -12 -316 -7 -318 6 0 6 -2 180 -4 386 -1 206 -2 385 -3 398
l-1 22 -225 0 c-124 0 -226 -1 -226 -2z"/>
<path d="M3408 4334 c-138 -32 -217 -110 -249 -244 -15 -63 -20 -635 -7 -734
16 -117 84 -216 174 -253 24 -10 44 -20 44 -23 0 -5 -118 -284 -155 -367 -8
-18 -22 -48 -30 -65 -27 -62 -125 -292 -125 -295 0 -2 113 -2 251 -1 l252 3
74 190 c41 105 77 199 80 210 3 11 13 38 23 60 9 22 35 86 56 143 27 72 43
102 54 100 12 -3 15 -52 16 -343 1 -187 2 -346 3 -353 1 -10 52 -12 233 -10
l233 3 0 995 0 995 -435 1 c-327 1 -449 -2 -492 -12z m453 -387 c4 -46 3 -501
-2 -508 -3 -5 -53 -8 -112 -7 -91 3 -108 6 -120 22 -11 15 -14 67 -13 248 1
209 3 231 19 243 24 18 226 19 228 2z"/>
<path d="M167 2136 c-1 -6 -3 -454 -2 -996 l1 -985 442 -2 c469 -2 489 0 582
47 81 41 139 128 157 235 14 79 9 702 -6 755 -26 94 -101 184 -175 211 -20 7
-36 16 -36 19 0 6 64 157 95 225 19 42 215 497 215 500 0 1 -113 2 -251 1
l-252 -1 -134 -350 c-122 -317 -147 -374 -162 -359 -3 2 -6 161 -7 352 -1 191
-2 350 -3 354 -2 12 -460 6 -464 -6z m700 -1089 c19 -16 20 -31 19 -247 -1
-173 -4 -232 -14 -242 -13 -13 -185 -28 -219 -18 -17 5 -18 24 -17 255 0 138
3 256 7 261 4 7 46 10 106 10 80 -1 103 -4 118 -19z"/>
<path d="M1630 1150 l0 -1000 229 0 229 0 0 383 c1 210 1 393 1 407 l1 26 160
0 c155 1 161 0 165 -20 2 -12 3 -190 2 -396 -1 -206 -1 -381 1 -387 3 -10 58
-13 231 -13 l226 0 0 998 0 997 -229 0 -229 0 -1 -390 -1 -389 -25 -6 c-14 -4
-33 -3 -42 2 -10 5 -18 5 -18 0 0 -4 -13 -8 -30 -7 -16 0 -30 3 -30 7 0 4 -10
4 -22 0 -13 -5 -36 -5 -53 -2 -16 3 -40 3 -52 -2 -15 -5 -23 -4 -23 3 0 8 -5
7 -15 -1 -12 -10 -15 -10 -16 1 0 8 0 188 0 402 l1 387 -230 0 -230 0 0 -1000z"/>
<path d="M3384 2139 c-172 -23 -287 -119 -314 -264 -8 -42 -10 -271 -8 -765
l3 -705 26 -55 c48 -100 138 -166 260 -189 31 -5 255 -10 519 -11 l466 0 -2
987 c0 544 -2 993 -2 999 -2 13 -856 16 -948 3z m446 -991 l0 -636 -73 -4
c-92 -4 -163 4 -179 20 -10 10 -13 147 -14 615 l-1 601 22 22 c20 20 31 22
134 21 l111 -2 0 -637z"/>
</g>
</svg>
