<svg id="Layer_1" data-name="Layer 1" xmlns="http://www.w3.org/2000/svg" viewBox="0 0 500 500"><defs><style>.cls-1{fill:#fff;}</style></defs><path class="cls-1" d="M500,500H0V0H500ZM16.78,238.59c10.74,0,20,0,29.3,0,25.33-.14,50.7.52,76-.71,23.25-1.14,37.46-14.9,37.69-36.07.53-49.33.43-98.67,0-148-.14-17.82-10.4-30.14-27.74-34.54a93.25,93.25,0,0,0-21.73-2.58c-27.66-.29-55.33.17-83-.29C19.09,16.26,16.56,18.6,16.6,27c.32,67,.18,134,.18,201Zm466.44,22.92c-10.07,0-18.68,0-27.28,0-25.63.11-51.3-.57-76.87.62-24.44,1.14-38.66,15-38.86,37q-.68,73.39,0,146.8c.13,18.25,10.48,30.68,28.26,35.17a84.35,84.35,0,0,0,19.73,2.32c27.63.25,55.27-.26,82.88.33,9.36.2,12.45-2.12,12.39-12-.44-66.24-.23-132.48-.23-198.73Zm-.42-23.45V72c0-15.66,0-31.32,0-47,0-4.6.13-8.62-6.51-8.56-29.65.27-59.34-.56-88.95.59-24.67,1-37.24,15.21-37.75,40.09-.33,16.32.21,32.66-.15,49-.48,21.73.27,42.66,25.16,51.78L340,238.59c17.12,0,32.43-.34,47.7.16,6.56.22,9.24-2.35,11.38-8.19,7.93-21.56,16.39-42.92,24.72-64.32a53.18,53.18,0,0,1,3.34-6.15l2.36.57v77.4Zm-464.36,24a11.74,11.74,0,0,0-.81,2.14q-.21,106.47-.46,213c0,5.58,2.78,6.52,7.54,6.49,28.33-.15,56.67.27,85-.24,26.57-.49,40.33-14.78,40.71-41.45.27-18.66-.17-37.34.14-56,.32-19.42-4.43-35.74-25.22-43.51l34.74-80.91c-18,0-34.34-.33-50.62.31-2.71.11-6.5,3.9-7.69,6.84-8.77,21.59-17,43.41-25.46,65.12A53.82,53.82,0,0,1,73,340l-2.38-.55V262.05Zm299.4-23.81V17.3H267.6V107H231.1V17.11H181.2V238.17h50.43V152h36.58v86.23Zm-136,23.34V482.8h50.62V393.17h36.48V483h49.95V261.86H268.22V348.1H231.48V261.58Z"/><path d="M16.78,238.59V228c0-67,.14-134-.18-201,0-8.4,2.49-10.74,10.73-10.6,27.66.46,55.33,0,83,.29a93.25,93.25,0,0,1,21.73,2.58c17.34,4.4,27.6,16.72,27.74,34.54.38,49.33.48,98.67,0,148-.23,21.17-14.44,34.93-37.69,36.07-25.27,1.23-50.64.57-76,.71C36.8,238.63,27.52,238.59,16.78,238.59ZM75.28,57.93V198.62H89.49c14.24,0,14.58-.34,14.58-14.49q0-51.39,0-102.78c0-26.84-.46-27.24-27.37-24.4C76.44,57,76.19,57.29,75.28,57.93Z"/><path d="M483.22,261.51v11.55c0,66.25-.21,132.49.23,198.73.06,9.87-3,12.19-12.39,12-27.61-.59-55.25-.08-82.88-.33a84.35,84.35,0,0,1-19.73-2.32c-17.78-4.49-28.13-16.92-28.26-35.17q-.54-73.4,0-146.8c.2-22.05,14.42-35.88,38.86-37,25.57-1.19,51.24-.51,76.87-.62C464.54,261.48,473.15,261.51,483.22,261.51Zm-58.36,40.1c-7.39,0-14.43-.83-21.1.37-3,.54-7.45,5.13-7.48,7.92q-.73,62.36,0,124.73c0,3,4.18,8,7.06,8.5,6.91,1.25,14.21.4,21.55.4Z"/><path d="M482.8,238.06H429.45v-77.4l-2.36-.57a53.18,53.18,0,0,0-3.34,6.15C415.42,187.64,407,209,399,230.56c-2.14,5.84-4.82,8.41-11.38,8.19-15.27-.5-30.58-.16-47.7-.16l34.67-80.66c-24.89-9.12-25.64-30.05-25.16-51.78.36-16.32-.18-32.66.15-49,.51-24.88,13.08-39.13,37.75-40.09,29.61-1.15,59.3-.32,88.95-.59,6.64-.06,6.53,4,6.51,8.56-.05,15.66,0,31.32,0,47v166ZM429,60.14c-7,0-12.92.07-18.87,0s-8.54,2.69-8.53,8.45c0,13.94-.34,27.89.32,41.79.13,2.78,3.86,7.26,6.47,7.7,6.62,1.11,13.54.37,20.61.37Z"/><path d="M18.44,262.05H70.58v77.39L73,340a53.82,53.82,0,0,0,3.34-6.2c8.47-21.71,16.69-43.53,25.46-65.12,1.19-2.94,5-6.73,7.69-6.84,16.28-.64,32.59-.31,50.62-.31l-34.74,80.91c20.79,7.77,25.54,24.09,25.22,43.51-.31,18.66.13,37.34-.14,56-.38,26.67-14.14,41-40.71,41.45-28.32.51-56.66.09-85,.24-4.76,0-7.56-.91-7.54-6.49q.33-106.49.46-212.95A11.74,11.74,0,0,1,18.44,262.05ZM71.17,440c6.17,0,11.74-.23,17.3.05,7.28.37,10.25-2.88,10-10.07-.28-8.28.08-16.59-.09-24.88-.49-24.75,5.31-24.28-25.17-23.18-.56,0-1.1.6-2,1.15Z"/><path d="M317.84,238.24H268.21V152H231.63v86.16H181.2V17.11h49.9V107h36.5V17.3h50.24Z"/><path d="M181.81,261.58h49.67V348.1h36.74V261.86h50.64V483H268.91V393.17H232.43V482.8H181.81Z"/><path class="cls-1" d="M75.28,57.93c.91-.64,1.16-1,1.43-1,26.91-2.84,27.37-2.44,27.37,24.4q0,51.39,0,102.78c0,14.15-.34,14.47-14.58,14.49H75.28Z"/><path class="cls-1" d="M424.86,301.61V443.53c-7.34,0-14.64.85-21.55-.4-2.88-.52-7-5.5-7.06-8.5q-.69-62.36,0-124.73c0-2.79,4.5-7.38,7.48-7.92C410.43,300.78,417.47,301.61,424.86,301.61Z"/><path class="cls-1" d="M429,60.14v58.29c-7.07,0-14,.74-20.61-.37-2.61-.44-6.34-4.92-6.47-7.7-.66-13.9-.28-27.85-.32-41.79,0-5.76,2.73-8.54,8.53-8.45S422,60.14,429,60.14Z"/><path class="cls-1" d="M71.17,440V383.1c1-.55,1.49-1.13,2-1.15,30.48-1.1,24.68-1.57,25.17,23.18.17,8.29-.19,16.6.09,24.88.24,7.19-2.73,10.44-10,10.07C82.91,439.8,77.34,440,71.17,440Z"/></svg>
